<svg width="35" height="35" viewBox="0 0 35 35" fill="none" xmlns="http://www.w3.org/2000/svg">
<path d="M17.5 1.09375C8.43937 1.09375 1.09375 8.43937 1.09375 17.5C1.09375 26.5606 8.43937 33.9062 17.5 33.9062C26.5606 33.9062 33.9062 26.5606 33.9062 17.5C33.9062 8.43937 26.5606 1.09375 17.5 1.09375ZM31.7188 17.5C31.7188 17.5015 31.7188 17.5029 31.7188 17.5058C31.7188 24.0012 27.3642 29.4788 21.4142 31.1777L21.3135 31.2025V25.8825C21.3135 24.6206 20.9752 23.6969 20.2985 23.1117C21.051 23.0358 21.7321 22.9119 22.3913 22.7398L22.2979 22.7602C22.9965 22.5648 23.606 22.3052 24.1704 21.9785L24.1325 21.999C24.7523 21.6577 25.2758 21.2246 25.7075 20.7098L25.7148 20.701C26.1377 20.1867 26.4824 19.5038 26.7487 18.6521C27.0151 17.8004 27.1483 16.8214 27.1483 15.715C27.1483 14.141 26.6345 12.8008 25.6069 11.6944C26.0881 10.5102 26.0361 9.18313 25.4508 7.71313C25.0863 7.59549 24.5593 7.66694 23.87 7.9275C23.1773 8.18417 22.5867 8.47292 22.0281 8.81271L22.0748 8.78646L21.3325 9.25458C20.2096 8.93229 18.919 8.74708 17.5846 8.74708C16.2502 8.74708 14.961 8.93229 13.7375 9.27792L13.8367 9.25458C12.9763 7.61104 10.7946 7.50604 9.69938 7.71313C8.97021 8.87542 9.05771 10.7085 9.56229 11.6944C8.53465 12.8008 8.02083 14.141 8.02083 15.715C8.02083 16.8214 8.15403 17.797 8.42042 18.6419C8.68681 19.4867 9.02854 20.1697 9.44563 20.6908C9.87729 21.2202 10.3979 21.6577 10.99 21.9844L11.0177 21.9975C11.5442 22.3037 12.1538 22.5648 12.7954 22.7456L12.8508 22.7588C13.4181 22.9119 14.0992 23.0344 14.7948 23.1058L14.8517 23.1102C14.3315 23.5788 14.0126 24.2492 13.895 25.1213C13.6427 25.2438 13.3496 25.3444 13.0419 25.41L13.0171 25.4144C12.705 25.4771 12.3463 25.5121 11.9802 25.5121C11.954 25.5121 11.9277 25.5121 11.9015 25.5121H11.9058C11.4761 25.5121 11.0498 25.3721 10.6269 25.0921C10.204 24.8121 9.84278 24.4052 9.54333 23.8715C9.30125 23.4617 8.98479 23.1233 8.60708 22.8638L8.59688 22.8565C8.21285 22.5959 7.89104 22.4399 7.63146 22.3883L7.455 22.349C7.42583 22.3417 7.39083 22.3373 7.35583 22.3373C7.18083 22.3373 7.02917 22.4365 6.95479 22.5808L6.95333 22.5837L6.93 22.629C6.89792 22.6888 6.88042 22.7602 6.88042 22.836C6.88042 23.0183 6.98687 23.1744 7.14146 23.2458L7.14438 23.2473C7.43021 23.3776 7.71312 23.625 7.99312 23.9896C8.225 24.2783 8.43063 24.605 8.59542 24.955L8.60854 24.9842L8.80396 25.4333C8.96875 25.9233 9.26771 26.3331 9.65708 26.6292L9.66292 26.6335C10.0275 26.9194 10.4694 27.125 10.9521 27.2154L10.971 27.2183C11.3735 27.2971 11.8417 27.3467 12.32 27.3554H12.3273C12.3813 27.3569 12.4454 27.3583 12.5096 27.3583C12.8275 27.3583 13.1396 27.3321 13.4429 27.2825L13.4094 27.2869L13.8585 27.2096C13.8585 27.7035 13.8619 28.2824 13.8688 28.9465C13.8731 29.349 13.876 30.4442 13.8775 31.2535C7.73354 29.5896 3.28708 24.064 3.28708 17.5C3.28708 11.6462 6.82208 6.61792 11.8752 4.43479L11.9671 4.39979C13.6019 3.68958 15.505 3.27688 17.5058 3.27688C25.356 3.27688 31.7202 9.64104 31.7202 17.4913C31.7202 17.4956 31.7202 17.5 31.7202 17.5044L31.7188 17.5Z" fill="#FEFEFE"/>
</svg>
